<?xml version="1.0" encoding="utf-8"?>
<!-- Generator: Adobe Illustrator 25.2.1, SVG Export Plug-In . SVG Version: 6.00 Build 0)  -->
<svg version="1.1" id="Layer_1" xmlns="http://www.w3.org/2000/svg" xmlns:xlink="http://www.w3.org/1999/xlink" x="0px" y="0px"
	 viewBox="0 0 30 18.26" style="enable-background:new 0 0 30 18.26;" xml:space="preserve">
<style type="text/css">
	.st0{fill:#F1208D;}
	.st1{fill:#1AA8CB;}
</style>
<g>
	<g>
		<path class="st0" d="M17.79,2.38c-1.54,0-2.82,1.09-3.03,2.51c0.15-0.67,0.79-1.18,1.57-1.18c0,0,0,0,0.01,0
			c0,0.04-0.01,0.09-0.01,0.13c0,0.81,0.66,1.46,1.46,1.46c0.04,0,0.08,0,0.13-0.01c0.75-0.06,1.34-0.69,1.34-1.46
			C19.26,3.03,18.6,2.38,17.79,2.38z"/>
		<g>
			<path class="st1" d="M11.8,4.91c0-1.17,0.53-2.24,1.41-3.06H12c-0.69,0-1.26,0.56-1.26,1.26v6c0,0.69,0.56,1.26,1.26,1.26h6
				c0.61,0,1.12-0.43,1.23-1.01c-0.54,0.14-1.11,0.21-1.71,0.21C14.37,9.57,11.8,7.48,11.8,4.91z"/>
			<path class="st1" d="M12.34,4.91c0,2.43,2.32,4.39,5.19,4.39c0.59,0,1.17-0.08,1.7-0.24c-0.37,0.07-0.76,0.11-1.16,0.11
				c-2.72,0-4.92-1.82-4.92-4.07c0-1.34,0.78-2.52,1.98-3.26H13.8C12.9,2.64,12.34,3.72,12.34,4.91z"/>
			<path class="st1" d="M13.67,5.11c0,2.1,1.91,3.79,4.28,3.79c0.46,0,0.9-0.06,1.31-0.18V8.71c-0.28,0.05-0.57,0.08-0.87,0.08
				c-2.24,0-4.06-1.56-4.06-3.48c0-1.83,1.65-3.33,3.74-3.47c-0.02,0-0.04,0-0.07,0h-2.24C14.51,2.51,13.67,3.72,13.67,5.11z"/>
		</g>
	</g>
	<g>
		<path class="st0" d="M4.03,12.51c0.02,0.01,0.03,0.04,0.04,0.07v0.02c0,0.02,0,0.03,0,0.05c0,0.01,0,0.03,0,0.04
			c0,0.04,0,0.06,0,0.08c0,0.02-0.01,0.04-0.01,0.05c-0.01,0.01-0.02,0.02-0.04,0.02c-0.02,0-0.04,0.01-0.07,0.01H2.49
			c-0.06,0-0.12,0-0.18,0.01h0c-0.14,0.03-0.28,0.07-0.41,0.14c-0.13,0.07-0.24,0.15-0.34,0.25c-0.1,0.1-0.17,0.22-0.23,0.35
			c-0.06,0.13-0.09,0.27-0.1,0.42v0l0,0.19c0,0.01,0,0.01,0,0.02c0,0.01,0,0.02,0,0.03l0.01,0.05c0.02,0.12,0.06,0.24,0.11,0.35
			c0.05,0.11,0.12,0.21,0.21,0.3c0.08,0.09,0.18,0.16,0.29,0.23c0.11,0.06,0.23,0.11,0.35,0.14c0.07,0.02,0.15,0.02,0.25,0.02
			l1.51,0c0.03,0,0.05,0.01,0.07,0.02c0.02,0.01,0.03,0.04,0.04,0.07l0,0.02l-0.01,0.16c-0.01,0.05-0.04,0.08-0.09,0.08H2.47
			c-0.2,0-0.38-0.03-0.56-0.1c-0.18-0.07-0.33-0.16-0.47-0.28c-0.14-0.12-0.26-0.27-0.35-0.43c-0.09-0.17-0.15-0.34-0.18-0.54
			c-0.04-0.24-0.02-0.47,0.05-0.69c0.07-0.22,0.17-0.42,0.32-0.59c0.14-0.17,0.32-0.31,0.52-0.41c0.21-0.1,0.43-0.15,0.67-0.15h1.51
			C3.99,12.5,4.01,12.5,4.03,12.51z"/>
		<path class="st0" d="M7.23,15.67c-0.01,0.01-0.05,0.02-0.1,0.02H7.03c-0.07,0-0.11-0.04-0.11-0.11l0-1.31H4.73v1.34
			c0,0.04-0.02,0.06-0.05,0.07c-0.03,0.01-0.06,0.02-0.1,0.02H4.49c-0.03,0-0.05-0.01-0.07-0.03c-0.02-0.02-0.03-0.05-0.04-0.08
			v-1.58l0-0.01c0.01-0.06,0.01-0.12,0.02-0.18c0.01-0.06,0.02-0.11,0.04-0.17c0.05-0.15,0.11-0.29,0.19-0.42
			c0.08-0.13,0.18-0.24,0.3-0.34c0.11-0.1,0.24-0.18,0.38-0.25c0.14-0.07,0.29-0.11,0.45-0.13h1.37c0.03,0,0.05,0.01,0.07,0.02
			c0.02,0.01,0.03,0.04,0.04,0.07v3.01C7.25,15.63,7.24,15.66,7.23,15.67z M5.54,12.93c-0.14,0.06-0.27,0.13-0.38,0.23
			c-0.11,0.1-0.2,0.21-0.28,0.34c-0.07,0.13-0.12,0.27-0.14,0.42h2.16l0-1.07H5.99C5.83,12.84,5.68,12.87,5.54,12.93z"/>
		<path class="st0" d="M10.74,12.59c0.01,0.04,0,0.07,0,0.12l0-0.01c0,0.01,0,0.03-0.01,0.05l0,0v0.02c0,0.06-0.03,0.08-0.09,0.08
			H9.32v2.76c0.01,0.06-0.02,0.09-0.09,0.09l-0.15-0.01c-0.07-0.01-0.1-0.04-0.11-0.1c0,0,0-0.02,0-0.03c0-0.02,0-0.06,0-0.12
			c0-0.06,0-0.15,0-0.27s0-0.28,0-0.48c0-0.2,0-0.45,0-0.76c0-0.3,0-0.67,0-1.09H7.66c-0.06,0-0.1-0.04-0.11-0.11v-0.16
			c0-0.03,0.01-0.05,0.03-0.06C7.6,12.5,7.62,12.5,7.64,12.5h2.99C10.7,12.5,10.73,12.53,10.74,12.59z"/>
		<path class="st0" d="M13.61,15.67c-0.01,0.01-0.05,0.02-0.1,0.02h-0.11c-0.07,0-0.11-0.04-0.11-0.11l0-1.31h-2.18v1.34
			c0,0.04-0.02,0.06-0.05,0.07c-0.03,0.01-0.06,0.02-0.1,0.02h-0.09c-0.03,0-0.05-0.01-0.07-0.03c-0.02-0.02-0.03-0.05-0.04-0.08
			v-1.58l0-0.01c0.01-0.06,0.01-0.12,0.02-0.18c0.01-0.06,0.02-0.11,0.04-0.17c0.05-0.15,0.11-0.29,0.19-0.42
			c0.08-0.13,0.18-0.24,0.3-0.34c0.11-0.1,0.24-0.18,0.38-0.25c0.14-0.07,0.29-0.11,0.45-0.13h1.37c0.03,0,0.05,0.01,0.07,0.02
			c0.02,0.01,0.03,0.04,0.04,0.07v3.01C13.63,15.63,13.62,15.66,13.61,15.67z M11.92,12.93c-0.14,0.06-0.27,0.13-0.38,0.23
			c-0.11,0.1-0.2,0.21-0.28,0.34c-0.07,0.13-0.12,0.27-0.14,0.42h2.16l0-1.07h-0.92C12.21,12.84,12.06,12.87,11.92,12.93z"/>
		<path class="st0" d="M16.69,14.01c0,0.01,0,0.02,0,0.03c0,0.01,0,0.02,0,0.02c0,0.08,0,0.14-0.01,0.16
			c-0.01,0.03-0.05,0.04-0.11,0.04h-2.12l0,1.36c0,0.02-0.01,0.03-0.02,0.05c-0.01,0.01-0.03,0.02-0.05,0.02h-0.17
			c-0.03,0-0.05-0.01-0.06-0.02c-0.02-0.02-0.03-0.04-0.03-0.06v-3.04c0-0.02,0-0.03,0.02-0.05c0.01-0.01,0.03-0.02,0.05-0.02h0.91
			c0.19,0,0.38,0.04,0.56,0.1c0.18,0.07,0.34,0.16,0.48,0.28c0.14,0.12,0.26,0.26,0.36,0.43c0.09,0.17,0.16,0.35,0.19,0.55
			l0.01,0.08c0.01,0.02,0.01,0.03,0.01,0.04c0,0.01,0,0.02,0,0.03L16.69,14.01z M14.46,12.84l0,1.07h1.88l-0.01-0.04
			c-0.02-0.13-0.06-0.26-0.12-0.37c-0.06-0.12-0.13-0.22-0.23-0.31c-0.09-0.09-0.2-0.17-0.31-0.23c-0.12-0.06-0.24-0.1-0.38-0.12h0
			c-0.07-0.01-0.13-0.01-0.18-0.01H14.46z"/>
		<path class="st0" d="M17.32,12.52c0.02,0.02,0.04,0.04,0.04,0.07v0.01c0,0.01,0,0.05,0,0.12c0,0.07,0,0.15,0,0.25
			c0,0.1,0,0.2,0,0.32c0,0.11,0,0.22,0,0.33c0,0.1,0,0.19,0,0.27c0,0.08,0,0.12,0,0.14c-0.01,0.01-0.01,0.03-0.01,0.05
			c0,0.03,0,0.06,0.01,0.09c0,0.03,0,0.06,0.01,0.09c0,0.03,0,0.04,0,0.05c0.02,0.13,0.06,0.26,0.12,0.37
			c0.06,0.12,0.14,0.22,0.23,0.31c0.09,0.09,0.19,0.16,0.31,0.22c0.12,0.06,0.24,0.1,0.38,0.12c0.04,0.01,0.08,0.01,0.12,0.01
			c0.04,0,0.08,0,0.11,0h0.89v-2.75c0-0.03,0.01-0.06,0.04-0.07c0.03-0.01,0.06-0.02,0.09-0.02c0.01,0,0.02,0,0.04,0
			c0.01,0,0.02,0,0.03,0h0.03c0.07,0,0.11,0.04,0.11,0.11l0,3.02c0,0.02,0,0.03-0.02,0.05c-0.01,0.01-0.03,0.02-0.05,0.02H18.6
			c-0.19,0-0.37-0.03-0.55-0.1c-0.18-0.07-0.33-0.16-0.47-0.28c-0.14-0.12-0.26-0.26-0.36-0.42c-0.1-0.16-0.16-0.34-0.19-0.53
			c-0.02-0.13-0.03-0.25-0.02-0.37v-1.4c0-0.03,0.02-0.06,0.04-0.07c0.03-0.01,0.06-0.02,0.1-0.02c0.01,0,0.03,0,0.04,0
			c0.01,0,0.02,0,0.03,0h0.03C17.27,12.5,17.3,12.5,17.32,12.52z"/>
		<path class="st0" d="M20.63,12.52c0.02,0.02,0.04,0.05,0.04,0.09l0,1.6c0,0.02,0,0.03,0,0.05c0,0.02,0,0.03,0.01,0.05
			c0.02,0.15,0.07,0.29,0.14,0.41c0.07,0.13,0.16,0.24,0.27,0.33c0.11,0.09,0.23,0.16,0.37,0.22c0.14,0.05,0.28,0.08,0.43,0.08h1.49
			c0.03,0,0.06,0.01,0.08,0.03c0.02,0.02,0.03,0.05,0.04,0.08v0.15c-0.01,0.02-0.02,0.04-0.03,0.06c-0.02,0.02-0.04,0.03-0.06,0.03
			h-1.49c-0.2,0-0.39-0.04-0.57-0.11c-0.18-0.07-0.34-0.16-0.48-0.28c-0.14-0.12-0.26-0.26-0.35-0.43
			c-0.09-0.16-0.16-0.34-0.19-0.54c-0.01-0.03-0.01-0.06-0.01-0.09c0-0.03-0.01-0.06-0.01-0.09v-1.58c0-0.02,0.01-0.04,0.03-0.06
			c0.02-0.02,0.04-0.03,0.06-0.03h0.15C20.58,12.5,20.61,12.5,20.63,12.52z"/>
		<path class="st0" d="M26.24,12.59c0.01,0.04,0,0.07,0,0.12l0-0.01c0,0.01,0,0.03-0.01,0.05l0,0v0.02c0,0.06-0.03,0.08-0.09,0.08
			h-1.32v2.76c0.01,0.06-0.02,0.09-0.09,0.09l-0.15-0.01c-0.07-0.01-0.1-0.04-0.11-0.1c0,0,0-0.02,0-0.03c0-0.02,0-0.06,0-0.12
			c0-0.06,0-0.15,0-0.27c0-0.12,0-0.28,0-0.48c0-0.2,0-0.45,0-0.76c0-0.3,0-0.67,0-1.09h-1.31c-0.06,0-0.1-0.04-0.11-0.11v-0.16
			c0-0.03,0.01-0.05,0.03-0.06c0.02-0.01,0.04-0.02,0.06-0.02h2.99C26.19,12.5,26.23,12.53,26.24,12.59z"/>
		<path class="st0" d="M29.11,15.67c-0.01,0.01-0.05,0.02-0.1,0.02H28.9c-0.07,0-0.11-0.04-0.11-0.11l0-1.31H26.6v1.34
			c0,0.04-0.02,0.06-0.05,0.07c-0.03,0.01-0.06,0.02-0.1,0.02h-0.09c-0.03,0-0.05-0.01-0.07-0.03c-0.02-0.02-0.03-0.05-0.04-0.08
			v-1.58l0-0.01c0.01-0.06,0.01-0.12,0.02-0.18c0.01-0.06,0.02-0.11,0.04-0.17c0.05-0.15,0.11-0.29,0.19-0.42
			c0.08-0.13,0.18-0.24,0.3-0.34c0.11-0.1,0.24-0.18,0.38-0.25c0.14-0.07,0.29-0.11,0.45-0.13h1.37c0.03,0,0.05,0.01,0.07,0.02
			c0.02,0.01,0.03,0.04,0.04,0.07v3.01C29.12,15.63,29.12,15.66,29.11,15.67z M27.42,12.93c-0.14,0.06-0.27,0.13-0.38,0.23
			c-0.11,0.1-0.2,0.21-0.28,0.34c-0.07,0.13-0.12,0.27-0.14,0.42h2.16l0-1.07h-0.92C27.71,12.84,27.56,12.87,27.42,12.93z"/>
	</g>
</g>
</svg>
